<?xml version="1.0" encoding="utf-8"?>
<!-- Generator: Adobe Illustrator 15.0.0, SVG Export Plug-In . SVG Version: 6.00 Build 0)  -->
<!DOCTYPE svg PUBLIC "-//W3C//DTD SVG 1.1//EN" "http://www.w3.org/Graphics/SVG/1.1/DTD/svg11.dtd">
<svg width="719.4244604316547" height="540.5405405405405" xmlns="http://www.w3.org/2000/svg" xmlns:xlink="http://www.w3.org/1999/xlink">
  <g>
    <path id="brush_round_0" xmin="161.1" ymin="185.85" xmax="625.7" ymax="383.4" stroke="#c1272d" stroke-width="2" stroke-opacity="1" d="M 161.10,327.70 L 161.10,326.30 L 161.10,324.95 L 161.10,320.80 L 161.10,315.30 L 161.10,304.30 L 161.10,293.25 L 161.10,280.85 L 161.10,269.85 L 161.10,257.45 L 163.85,247.85 L 168.00,240.95 L 169.35,236.80 L 170.75,234.05 L 173.50,227.20 L 176.25,220.30 L 181.75,213.40 L 188.65,205.15 L 195.50,199.65 L 201.00,195.50 L 205.15,194.15 L 210.65,191.40 L 217.55,190.00 L 227.20,188.65 L 235.45,188.65 L 242.35,188.65 L 251.95,188.65 L 258.85,188.65 L 267.10,192.75 L 275.35,196.90 L 286.40,202.40 L 291.90,205.15 L 297.40,212.05 L 301.55,217.55 L 308.40,225.80 L 312.55,231.30 L 313.90,235.45 L 318.05,240.95 L 322.20,249.20 L 327.70,260.20 L 331.80,271.25 L 337.35,283.65 L 341.45,298.75 L 351.10,315.30 L 353.85,326.30 L 359.35,335.95 L 362.10,344.20 L 366.25,352.45 L 369.00,356.60 L 371.75,360.75 L 375.90,366.25 L 380.00,371.75 L 385.50,374.50 L 393.75,378.65 L 402.05,380.00 L 411.65,381.40 L 419.95,381.40 L 425.45,381.40 L 429.55,380.00 L 436.45,375.85 L 446.10,371.75 L 454.35,364.85 L 462.60,359.35 L 470.90,351.10 L 477.75,344.20 L 480.50,338.70 L 484.65,329.05 L 487.40,320.80 L 490.15,309.80 L 492.90,297.40 L 495.65,285.00 L 498.40,274.00 L 501.15,262.95 L 505.30,254.70 L 508.05,243.70 L 512.20,234.05 L 517.70,220.30 L 521.80,212.05 L 524.55,202.40 L 528.70,195.50 L 532.85,192.75 L 534.20,190.00 L 538.35,188.65 L 545.20,187.25 L 553.50,185.85 L 557.60,185.85 L 561.75,185.85 L 565.90,185.85 L 570.00,190.00 L 575.50,195.50 L 586.55,203.75 L 594.80,213.40 L 598.90,221.65 L 604.45,229.95 L 608.55,238.20 L 609.95,243.70 L 609.95,249.20 L 611.30,256.10 L 612.70,264.35 L 614.05,271.25 L 614.05,280.85 L 616.80,291.90 L 618.20,304.30 L 620.95,316.65 L 623.70,329.05 L 623.70,338.70" fill="none"/>
  </g>
</svg>
